# xmcd CD database file
#
# Track frame offsets:
#	150
#	12644
#	33461
#	54331
#	76378
#	91367
#
# Disc length: 1485 seconds
#
# Revision: 0
# Processed by: cddbd v1.4PL0 Copyright (c) Steve Scherf et al.
# Submitted via: CDex 1.40Beta9
#
DISCID=4205cb06
DTITLE=LeAnne King - You Win Some, You Lose Some
DYEAR=2002
DGENRE=Country
TTITLE0=You Win Some, You Lose Some
TTITLE1=Twenty Years
TTITLE2=You Walked In
TTITLE3=The Good Days
TTITLE4=The Roan Mare
TTITLE5=They Don't Make 'Em Like That Anymore
EXTD=YEAR: 2002 ID3G: 2
EXTT0=
EXTT1=
EXTT2=
EXTT3=
EXTT4=
EXTT5=
PLAYORDER=
